<svg width="21" height="21" viewBox="0 0 21 21" fill="none" xmlns="http://www.w3.org/2000/svg">
<path fill-rule="evenodd" clip-rule="evenodd" d="M20.9773 10.3614C21.0832 9.61049 20.8188 8.85299 20.2694 8.33823C18.6513 6.81855 14.095 2.54082 12.041 0.61242C11.171 -0.20414 9.82942 -0.20414 8.96042 0.61242L0.731001 8.33823C0.18256 8.85291 -0.0827606 9.61041 0.0231796 10.3614C0.28194 12.2027 0.921301 16.7534 1.23912 19.0162C1.3985 20.1544 2.35756 21 3.48733 21H6.71613C7.97051 21 8.98674 19.9659 8.98674 18.69V16.381C8.98674 15.9563 9.32612 15.6113 9.7433 15.6113H11.2574C11.6755 15.6113 12.0149 15.9563 12.0149 16.381V18.69C12.0149 19.9659 13.0311 21 14.2855 21H17.5133C18.6439 21 19.6021 20.1544 19.7615 19.0162L20.9773 10.3614Z" fill="#5600B3"/>
</svg>
